<?xml version="1.0" standalone="no"?>
<!DOCTYPE svg PUBLIC "-//W3C//DTD SVG 20010904//EN"
 "http://www.w3.org/TR/2001/REC-SVG-20010904/DTD/svg10.dtd">
<svg version="1.0" xmlns="http://www.w3.org/2000/svg"
 width="962.000000pt" height="2048.000000pt" viewBox="0 0 962.000000 2048.000000"
 preserveAspectRatio="xMidYMid meet">

<g transform="translate(0.000000,2048.000000) scale(0.100000,-0.100000)"
fill="#000000" stroke="none">
<path d="M4739 16755 c-25 -8 -64 -27 -86 -42 -90 -60 -389 -370 -748 -773
-71 -80 -134 -150 -140 -156 -5 -6 -30 -33 -55 -60 -70 -76 -130 -150 -210
-259 -155 -211 -183 -245 -196 -245 -8 0 -19 11 -24 25 -5 14 -29 34 -59 49
-27 14 -52 30 -56 36 -14 22 -65 10 -104 -26 -57 -51 -84 -111 -79 -179 3 -52
2 -55 -20 -55 -57 0 -67 -11 -355 -347 -234 -274 -558 -687 -648 -826 -39 -59
-59 -46 -80 53 -12 58 -59 120 -91 120 -45 0 -110 -54 -143 -119 -28 -55 -16
-114 49 -248 62 -126 134 -250 204 -350 49 -71 197 -240 238 -272 15 -12 53
-45 84 -74 31 -28 75 -69 98 -90 23 -20 124 -103 224 -183 101 -80 190 -151
198 -158 37 -29 237 -170 353 -250 137 -93 143 -94 199 -55 51 37 99 148 84
196 -4 11 -52 51 -109 89 -328 221 -634 460 -900 702 -140 128 -230 227 -305
338 -49 72 -51 92 -16 125 15 13 85 103 157 199 118 159 368 476 413 525 11
11 71 81 134 155 63 74 117 137 120 140 3 3 30 37 61 75 69 86 91 140 83 198
l-6 42 34 -35 c19 -20 50 -42 69 -50 19 -7 57 -39 86 -69 29 -31 64 -67 79
-81 102 -96 410 -407 560 -565 177 -187 226 -239 392 -423 58 -64 90 -92 106
-92 33 0 105 67 127 118 38 87 32 103 -91 236 -25 27 -49 54 -55 60 -62 71
-404 433 -595 629 -85 87 -156 164 -158 171 -2 7 64 80 146 162 339 340 528
577 742 934 35 58 87 137 116 175 72 96 216 235 244 235 20 0 39 -16 96 -81
12 -13 40 -39 62 -57 58 -46 112 -120 238 -325 206 -337 405 -583 737 -909 66
-66 117 -124 115 -132 -2 -8 -48 -61 -103 -118 -126 -130 -449 -469 -541 -567
-38 -41 -78 -84 -89 -95 -11 -12 -57 -63 -103 -115 -66 -75 -82 -100 -82 -125
1 -65 67 -164 125 -186 38 -14 56 -4 114 64 125 146 581 628 801 845 74 73
191 189 260 257 69 68 136 126 150 129 24 6 25 5 22 -39 -6 -66 13 -109 86
-200 36 -44 68 -83 72 -86 3 -3 43 -50 90 -105 46 -55 87 -102 90 -105 5 -5
112 -130 149 -175 93 -114 192 -242 313 -405 80 -107 155 -204 166 -214 12
-11 22 -29 22 -41 0 -58 -230 -324 -424 -491 -38 -32 -74 -64 -80 -70 -71 -69
-466 -369 -685 -520 -83 -57 -151 -111 -158 -126 -27 -55 37 -180 109 -213
l36 -17 154 104 c241 163 522 377 713 542 131 114 160 141 260 241 135 135
189 201 278 345 53 87 171 329 184 380 25 94 -81 236 -162 216 -15 -4 -34 -32
-67 -106 -26 -55 -51 -100 -57 -100 -5 0 -32 30 -58 68 -26 37 -53 74 -60 82
-6 8 -47 62 -90 120 -43 58 -83 112 -90 120 -15 18 -97 123 -138 176 -31 40
-255 305 -265 314 -3 3 -55 64 -115 135 -146 175 -170 195 -228 195 -20 0 -22
4 -19 55 5 69 -31 150 -83 189 -53 40 -78 35 -149 -34 -35 -33 -72 -60 -82
-60 -12 0 -34 19 -55 48 -20 26 -82 110 -139 187 -102 138 -173 222 -336 400
-45 50 -99 110 -120 135 -22 24 -46 51 -54 60 -8 9 -53 58 -100 110 -99 109
-77 86 -255 275 -77 81 -145 156 -152 165 -15 21 -169 132 -205 148 -46 19
-120 23 -169 7z"/>
<path d="M4724 13720 c-93 -37 -414 -330 -533 -486 -299 -391 -451 -632 -637
-1005 -115 -231 -214 -464 -358 -841 -38 -98 -68 -138 -107 -138 -24 0 -46
-42 -78 -151 -14 -47 -30 -86 -36 -85 -11 1 -10 123 0 237 6 64 6 67 -22 88
-36 29 -55 25 -186 -39 -81 -39 -118 -65 -173 -118 -149 -146 -311 -392 -423
-645 -43 -97 -73 -152 -83 -152 -20 0 -213 174 -268 241 -14 17 -88 98 -166
180 -250 264 -326 348 -372 409 -159 214 -218 587 -162 1030 32 247 58 410 86
524 51 206 176 500 283 663 97 148 114 202 81 256 -44 72 -112 31 -220 -134
-114 -173 -203 -362 -295 -624 -48 -139 -71 -232 -100 -407 -58 -353 -70 -478
-70 -716 0 -201 -2 -227 -16 -227 -9 0 -54 37 -102 83 -95 91 -120 136 -130
231 -7 75 -30 101 -79 92 -42 -8 -95 -57 -119 -110 -32 -71 -19 -199 31 -296
27 -52 126 -152 295 -296 202 -172 236 -206 343 -339 53 -66 108 -133 122
-150 92 -109 373 -387 445 -441 60 -46 277 -241 288 -260 7 -13 -15 -74 -121
-330 -39 -94 -77 -219 -99 -329 -28 -141 -25 -557 5 -716 52 -278 171 -522
360 -742 93 -107 213 -235 298 -316 282 -269 366 -356 346 -359 -11 -2 -127
51 -259 117 -227 113 -397 184 -911 380 -250 95 -437 175 -542 230 -315 166
-430 233 -454 264 l-19 26 31 36 c73 83 81 149 38 316 -32 126 -66 206 -170
397 -205 378 -237 481 -281 902 -22 218 -38 615 -31 790 10 258 51 409 162
604 62 108 88 178 78 210 -17 55 -59 69 -115 40 -52 -26 -176 -237 -244 -412
l-35 -91 0 -768 c0 -830 0 -826 56 -1003 36 -115 103 -262 212 -463 101 -187
141 -284 167 -400 26 -118 11 -134 -57 -63 -30 30 -54 46 -78 50 -19 3 -49 8
-67 12 -29 5 -37 1 -80 -42 -48 -49 -73 -102 -73 -158 0 -39 87 -123 137 -132
47 -8 141 -63 149 -86 3 -9 -2 -30 -10 -45 -14 -29 -90 -415 -123 -628 -21
-138 -24 -443 -5 -530 68 -309 215 -563 442 -762 116 -102 401 -315 600 -448
91 -60 167 -112 170 -115 3 -3 50 -35 105 -71 476 -312 784 -446 1202 -524
106 -20 150 -43 158 -82 11 -51 38 -103 71 -138 l32 -35 179 2 c153 2 190 -1
263 -19 392 -99 654 -258 936 -570 101 -113 229 -278 282 -366 l33 -55 -34
-74 c-130 -272 -208 -585 -257 -1039 -12 -106 -24 -197 -26 -201 -3 -5 -48 -8
-101 -8 -112 0 -122 -7 -123 -83 0 -32 -10 -70 -31 -113 -34 -74 -40 -137 -16
-162 38 -37 298 -43 511 -11 153 23 231 22 416 -5 58 -9 162 -16 232 -16 118
0 129 2 148 22 18 19 20 34 19 113 -1 49 3 103 10 118 14 35 14 92 1 118 -10
17 -22 19 -110 19 -85 0 -99 2 -104 18 -3 9 -12 87 -21 172 -41 408 -125 769
-232 1000 -70 151 -68 129 -18 204 281 420 616 715 950 839 228 84 371 110
556 101 l136 -7 37 38 c38 38 76 111 76 146 0 30 44 50 164 75 471 96 755 228
1351 629 565 380 775 552 938 769 48 63 149 269 181 370 79 242 74 524 -19
996 -13 69 -31 163 -40 209 -9 47 -22 96 -29 110 -7 14 -11 33 -9 42 2 9 50
42 106 74 182 104 177 99 177 148 0 52 -27 112 -70 155 -48 48 -70 50 -137 11
-131 -74 -145 -80 -151 -75 -20 20 24 205 75 313 15 32 51 103 81 158 148 270
217 431 257 595 l25 105 0 787 0 788 -25 65 c-60 160 -189 385 -243 423 -41
30 -85 29 -106 -3 -29 -44 -20 -87 40 -203 124 -236 136 -267 164 -430 42
-242 11 -981 -55 -1331 -27 -140 -122 -368 -239 -575 -97 -170 -134 -257 -171
-402 -40 -159 -30 -240 37 -310 41 -44 32 -63 -55 -115 -152 -91 -530 -289
-550 -289 -3 0 -34 -13 -69 -29 -35 -16 -148 -61 -253 -101 -104 -40 -233 -90
-285 -110 -52 -20 -162 -63 -245 -94 -82 -32 -268 -116 -413 -187 -251 -123
-292 -140 -292 -121 0 5 123 129 274 275 362 352 508 530 611 742 64 130 97
230 128 380 19 98 22 140 22 385 0 250 -2 285 -23 380 -30 136 -57 214 -142
416 -65 155 -82 218 -61 226 5 2 52 43 105 92 53 49 128 113 167 143 117 92
396 378 523 538 140 175 202 238 406 410 217 184 274 248 309 353 47 138 12
280 -80 328 -66 34 -103 7 -112 -84 -4 -34 -18 -84 -31 -110 -32 -63 -215
-236 -216 -205 -1 4 -2 118 -3 253 -3 229 -12 331 -47 545 -5 33 -17 107 -26
165 -49 319 -198 712 -374 990 -113 177 -176 224 -230 170 -40 -40 -22 -123
49 -229 146 -215 274 -524 326 -786 31 -158 71 -437 85 -605 17 -197 -1 -412
-50 -590 -24 -85 -97 -242 -132 -281 -13 -15 -34 -40 -48 -57 -25 -29 -184
-202 -321 -347 -36 -38 -90 -97 -120 -130 -105 -117 -296 -295 -317 -295 -5 0
-29 44 -52 98 -165 381 -406 714 -581 801 -69 34 -115 39 -160 15 -43 -22 -65
-81 -73 -189 -4 -49 -10 -93 -15 -98 -4 -4 -22 39 -40 95 -38 119 -54 148 -81
148 -43 0 -68 43 -151 260 -289 757 -589 1292 -995 1780 -70 85 -246 259 -314
310 -25 19 -53 45 -64 58 -32 40 -120 72 -195 71 -36 0 -76 -4 -87 -9z m129
-337 c44 -7 140 -85 268 -221 133 -139 354 -437 498 -671 69 -111 241 -417
241 -428 0 -2 21 -45 46 -95 94 -191 231 -525 359 -872 36 -99 70 -185 76
-192 6 -8 19 -14 29 -14 39 0 67 -53 88 -172 11 -62 24 -140 27 -173 4 -33 15
-74 26 -91 10 -17 19 -41 19 -52 0 -23 -41 -143 -71 -209 -10 -24 -19 -45 -19
-48 0 -9 -79 -169 -109 -222 -31 -53 -141 -221 -166 -251 -8 -10 -44 -55 -81
-102 -146 -184 -357 -388 -595 -573 -48 -37 -89 -75 -91 -85 -6 -21 18 -122
32 -136 6 -6 10 -16 10 -23 0 -21 -74 21 -156 87 -114 92 -120 95 -149 76 -13
-9 -42 -16 -64 -16 -60 0 -176 51 -215 94 -52 56 -97 47 -187 -40 -53 -49 -61
-54 -104 -54 -25 0 -59 7 -76 15 -34 18 -31 20 -132 -62 -68 -55 -146 -103
-168 -103 -4 0 1 20 12 45 11 25 21 64 22 86 2 47 6 42 -173 183 -259 204
-531 501 -697 760 -94 146 -207 387 -248 529 -16 56 -16 59 4 98 13 24 27 82
35 147 28 204 56 283 105 290 31 5 44 29 116 228 266 727 510 1216 823 1653
149 207 248 328 361 442 144 143 207 191 241 184 14 -3 42 -8 63 -12z m-2105
-2505 c17 -193 64 -415 139 -658 162 -529 503 -998 1023 -1411 147 -116 151
-119 176 -119 50 0 29 -34 -76 -124 -96 -82 -232 -219 -310 -311 -53 -64 -328
-491 -386 -600 -24 -44 -61 -133 -83 -199 -22 -65 -44 -123 -49 -128 -5 -5
-37 19 -79 59 -38 37 -146 140 -238 228 -242 229 -473 460 -538 536 -204 238
-301 421 -359 674 -29 128 -37 509 -14 642 25 143 136 451 167 462 14 4 64
-50 146 -157 60 -78 85 -92 129 -69 64 33 121 133 110 190 -7 36 -88 145 -180
242 -36 39 -68 79 -72 91 -6 23 8 60 89 244 70 160 120 248 206 369 73 102
168 199 180 185 4 -5 13 -71 19 -146z m4227 84 c71 -74 183 -240 245 -363 66
-131 150 -334 150 -361 -1 -14 -24 -48 -57 -83 -83 -89 -174 -205 -190 -243
-19 -45 4 -117 56 -176 17 -20 71 -46 95 -46 9 0 43 34 76 77 87 110 140 165
154 160 28 -11 144 -327 167 -457 17 -93 17 -432 0 -547 -33 -227 -118 -439
-245 -609 -137 -181 -231 -280 -662 -693 -65 -63 -163 -157 -216 -208 -54 -52
-102 -92 -107 -89 -5 3 -21 45 -36 93 -48 155 -120 298 -230 458 -23 33 -65
100 -94 149 -118 195 -292 396 -475 549 -97 80 -121 117 -75 117 31 0 54 15
194 129 505 409 840 865 998 1356 83 256 156 618 157 771 0 95 16 98 95 16z
m-2057 -2332 c37 -17 87 -50 112 -74 25 -24 72 -62 105 -86 123 -88 257 -241
318 -364 17 -33 41 -75 54 -92 29 -39 140 -270 192 -402 51 -128 101 -291 136
-447 50 -219 45 -491 -12 -670 -33 -105 -105 -226 -292 -490 -46 -66 -132
-187 -190 -270 -58 -82 -130 -181 -160 -220 -138 -174 -346 -395 -371 -395
-34 0 -316 318 -455 514 -49 69 -134 188 -188 264 -105 146 -265 386 -311 465
-59 103 -95 246 -103 417 -15 314 95 718 317 1155 123 243 238 394 381 506 46
35 104 83 130 107 64 59 172 112 227 112 26 0 68 -12 110 -30z m-4246 -733
c230 -132 453 -232 888 -397 499 -190 556 -214 945 -407 215 -107 406 -203
426 -213 60 -33 97 -25 148 32 21 23 32 29 48 24 26 -8 37 -39 58 -166 40
-236 142 -496 273 -695 153 -231 328 -404 647 -640 131 -97 548 -499 581 -560
24 -46 67 -65 135 -61 70 4 93 16 124 70 14 24 119 135 233 247 157 154 251
237 388 341 299 227 438 367 589 593 154 230 255 496 294 770 9 64 31 105 55
105 7 0 31 -18 55 -40 25 -24 52 -40 67 -40 13 0 214 94 446 208 533 263 430
218 1003 437 428 163 616 247 873 391 63 35 118 64 122 64 12 0 15 -11 54
-215 37 -190 60 -352 71 -500 19 -275 -104 -605 -310 -824 -128 -136 -366
-317 -825 -626 -553 -372 -830 -502 -1260 -588 -224 -46 -333 -56 -670 -64
-226 -5 -278 -8 -292 -21 -25 -21 -23 -91 3 -147 20 -43 79 -105 99 -105 24 0
7 -22 -27 -36 -222 -90 -420 -221 -618 -406 -113 -106 -293 -314 -388 -450
-45 -64 -87 -117 -94 -117 -6 -1 -36 34 -66 77 -105 150 -222 288 -361 427
-154 153 -167 166 -271 241 -131 95 -310 196 -414 232 -39 14 -39 23 2 45 57
31 117 148 103 201 -14 52 -7 51 -308 58 -322 9 -493 25 -699 69 -426 89 -684
213 -1284 616 -642 432 -837 608 -967 868 -41 82 -92 233 -109 323 -18 97 -6
366 25 542 39 220 70 374 80 388 10 17 15 15 128 -51z m2802 -1158 c24 -68 71
-185 106 -259 34 -74 86 -196 115 -270 29 -74 62 -159 73 -187 12 -29 20 -53
17 -53 -21 0 -160 179 -223 285 -119 202 -205 525 -161 607 16 30 26 14 73
-123z m2751 119 c12 -57 12 -80 -1 -156 -31 -180 -115 -383 -225 -542 -67 -97
-144 -188 -153 -179 -7 7 139 377 192 487 45 92 104 239 128 322 27 91 48 115
59 68z m-1386 -3453 c44 -118 89 -297 120 -481 18 -105 71 -541 71 -586 0 -25
-43 -30 -231 -30 -199 0 -214 5 -205 64 4 22 16 124 27 226 21 202 48 375 80
517 28 124 98 345 109 345 5 0 18 -25 29 -55z"/>
<path d="M3305 4466 c-28 -28 -30 -47 -13 -114 10 -40 29 -65 123 -162 182
-186 278 -331 323 -485 28 -93 68 -319 77 -425 9 -112 -10 -346 -40 -491 -13
-64 -42 -172 -64 -239 -47 -140 -50 -171 -20 -201 21 -21 55 -22 103 -3 18 7
18 4 12 -42 -18 -129 -18 -150 -1 -185 33 -65 98 -119 144 -119 30 0 47 41 86
204 75 311 89 448 82 803 -5 286 -14 344 -86 568 -27 83 -64 211 -81 285 -39
160 -103 355 -153 463 -31 66 -39 77 -61 77 -33 0 -87 -33 -114 -70 -22 -29
-24 -29 -50 -16 -15 8 -47 35 -72 61 -106 110 -154 132 -195 91z"/>
<path d="M6224 4464 c-21 -15 -72 -57 -112 -95 -39 -38 -76 -69 -81 -69 -5 0
-21 16 -35 35 -31 40 -73 65 -110 65 -20 0 -30 -11 -54 -62 -60 -129 -136
-361 -173 -529 -11 -52 -40 -155 -64 -229 -84 -258 -101 -390 -92 -735 7 -258
15 -330 58 -530 55 -252 78 -315 120 -315 30 0 86 39 112 79 41 62 48 103 30
176 -17 71 -13 101 15 90 62 -27 112 -3 112 53 0 16 -22 100 -49 188 -73 238
-86 326 -86 594 0 217 1 231 32 373 18 81 46 181 62 222 43 112 150 263 279
395 118 121 152 174 152 239 0 31 -6 44 -26 60 -34 27 -43 26 -90 -5z"/>
</g>
</svg>
