<?xml version="1.0" standalone="no"?>
<!DOCTYPE svg PUBLIC "-//W3C//DTD SVG 20010904//EN"
 "http://www.w3.org/TR/2001/REC-SVG-20010904/DTD/svg10.dtd">
<svg version="1.0" xmlns="http://www.w3.org/2000/svg"
 width="512.000000pt" height="512.000000pt" viewBox="0 0 512.000000 512.000000"
 preserveAspectRatio="xMidYMid meet">

<g transform="translate(0.000000,512.000000) scale(0.100000,-0.100000)"
fill="#000000" stroke="none">
<path d="M2479 5038 c-143 -100 -264 -202 -425 -361 l-111 -109 -33 42 c-18
22 -36 40 -41 38 -23 -9 -191 -165 -261 -243 -72 -81 -165 -199 -210 -265
l-16 -25 -52 50 -51 50 -20 -25 c-112 -141 -244 -389 -298 -558 -35 -109 -70
-269 -72 -322 -2 -80 -10 -80 -84 8 -37 45 -71 82 -75 82 -11 0 -58 -206 -69
-305 -16 -130 -13 -366 4 -499 15 -111 57 -295 89 -383 l15 -42 -32 19 c-40
25 -74 25 -114 0 -67 -41 -68 -90 -4 -250 90 -222 191 -380 346 -536 149 -151
289 -242 473 -308 96 -34 246 -64 358 -69 58 -3 120 -14 173 -31 310 -98 871
-98 1180 -1 47 15 116 28 164 31 544 31 965 356 1188 917 27 68 49 139 49 159
0 78 -89 130 -160 94 -30 -14 -31 -14 -25 2 53 137 101 387 111 577 10 186
-22 464 -69 601 l-13 35 -51 -63 c-56 -69 -103 -116 -103 -104 0 5 -7 55 -15
112 -29 196 -106 418 -205 594 -48 84 -157 247 -172 256 -6 4 -32 -16 -60 -42
l-50 -49 -16 25 c-102 152 -301 375 -425 475 l-48 39 -37 -43 -37 -43 -128
125 c-71 70 -170 160 -220 200 -95 78 -258 197 -268 197 -3 0 -39 -23 -80 -52z
m215 -180 c133 -103 396 -352 396 -375 0 -8 -74 -99 -165 -204 -103 -118 -165
-198 -165 -211 0 -12 7 -30 17 -40 37 -41 52 -29 269 222 114 132 212 240 219
240 29 0 259 -259 355 -400 l39 -57 -332 -338 -331 -338 -21 28 c-102 141
-251 301 -359 385 l-56 42 -57 -43 c-87 -67 -235 -220 -310 -321 l-68 -91
-332 339 -331 338 49 71 c107 152 317 385 347 385 6 0 103 -108 217 -240 215
-250 231 -263 269 -224 34 34 20 58 -154 261 l-171 197 98 99 c160 161 408
366 443 367 8 0 69 -42 134 -92z m-740 -1485 l110 -112 -56 -118 c-31 -65 -64
-144 -74 -176 l-18 -58 -87 87 -87 87 -31 -24 c-50 -40 -134 -153 -185 -249
-26 -50 -49 -90 -52 -90 -8 0 -300 238 -393 320 l-94 84 7 95 c18 254 113 538
251 752 l47 73 276 -280 c152 -153 326 -329 386 -391z m1923 600 c146 -240
233 -501 249 -749 l7 -99 -60 -55 c-113 -105 -421 -356 -427 -349 -2 2 -14 24
-26 49 -39 77 -124 203 -178 260 l-51 55 -90 -89 c-50 -50 -92 -88 -94 -85 -2
2 -18 45 -36 94 -18 50 -52 127 -75 171 l-42 82 384 391 c211 215 387 391 391
391 3 0 25 -30 48 -67z m-1241 -367 c185 -165 366 -443 453 -698 l29 -83 -149
-151 c-91 -92 -149 -158 -149 -170 0 -31 24 -56 54 -56 22 0 72 44 266 236
131 130 242 236 247 236 13 -1 68 -79 113 -162 147 -274 169 -608 63 -953
l-19 -60 -64 -12 c-93 -17 -265 -26 -334 -16 l-59 8 -54 90 c-107 178 -246
340 -401 467 l-72 60 -63 -50 c-147 -117 -309 -306 -416 -484 l-52 -86 -76 -8
c-84 -7 -212 0 -311 18 l-62 12 -25 80 c-46 154 -59 243 -60 401 0 107 5 174
18 235 32 150 119 341 196 430 l30 35 233 -231 c128 -128 243 -237 256 -244
33 -16 72 10 72 48 0 22 -29 57 -149 176 l-149 149 35 100 c66 192 185 396
321 552 71 83 192 196 204 192 4 -1 37 -29 74 -61z m1722 -675 c6 -230 -7
-353 -53 -536 -31 -119 -81 -260 -120 -335 -11 -21 -52 -51 -136 -101 -114
-68 -331 -169 -361 -169 -12 0 -10 17 8 89 48 189 56 440 19 606 -9 39 -18 81
-21 95 -5 23 11 39 158 156 190 153 339 284 423 372 57 61 59 62 68 40 5 -13
12 -110 15 -217z m-3455 123 c122 -116 276 -248 432 -369 55 -43 99 -83 98
-89 -1 -6 -12 -56 -24 -111 -39 -179 -31 -425 22 -624 11 -40 18 -75 16 -77
-1 -2 -51 16 -109 40 -110 45 -191 87 -315 163 -71 44 -72 45 -111 136 -104
239 -145 441 -146 717 -1 173 9 320 21 320 3 0 55 -48 116 -106z m1770 -959
c207 -206 363 -466 440 -735 28 -95 54 -237 45 -245 -11 -12 -198 -54 -293
-66 -129 -16 -481 -16 -610 0 -95 12 -282 54 -293 66 -9 8 17 150 45 245 55
192 153 384 280 554 75 101 249 276 273 276 9 0 60 -43 113 -95z m-1901 -68
c110 -84 153 -113 278 -185 264 -151 515 -228 783 -239 121 -5 137 -8 132 -22
-35 -87 -88 -264 -102 -343 l-18 -98 -65 0 c-91 0 -230 31 -340 75 -305 122
-518 333 -674 667 -46 99 -89 208 -81 208 3 0 42 -28 87 -63z m3617 -63 c-153
-384 -421 -653 -764 -768 -92 -31 -226 -56 -299 -56 l-51 0 -23 111 c-12 60
-39 156 -58 212 -56 159 -66 142 83 143 150 1 264 21 423 71 198 64 496 227
670 367 30 24 56 40 58 36 2 -5 -16 -57 -39 -116z"/>
<path d="M2121 831 c-28 -28 -27 -37 14 -122 63 -134 115 -387 115 -557 0
-118 -16 -112 309 -112 252 0 279 2 293 18 11 12 17 50 21 132 11 201 60 417
124 543 13 27 23 58 21 70 -4 30 -52 56 -75 41 -68 -42 -159 -349 -178 -602
l-8 -92 -198 0 -199 0 0 43 c-1 129 -49 370 -102 509 -52 136 -92 174 -137
129z"/>
</g>
</svg>
