<?xml version="1.0" encoding="UTF-8"?>
<svg version="1.1" viewBox="0 0 399 504" xmlns="http://www.w3.org/2000/svg">
<title>cyanara-512-2</title>
<g fill="none" fill-rule="evenodd">
<g transform="translate(.18571)" fill="#000" fill-rule="nonzero">
<g transform="translate(198.91 251.5) scale(-1 1) rotate(180) translate(-198.91 -251.5)">
<path d="m190.71 497.81c-14.3-10-26.4-20.2-42.5-36.1l-11.1-10.9-3.3 4.2c-1.8 2.2-3.6 4-4.1 3.8-2.3-0.9-19.1-16.5-26.1-24.3-7.2-8.1-16.5-19.9-21-26.5l-1.6-2.5-5.2 5-5.1 5-2-2.5c-11.2-14.1-24.4-38.9-29.8-55.8-3.5-10.9-7-26.9-7.2-32.2-0.2-8-1-8-8.4 0.8-3.7 4.5-7.1 8.2-7.5 8.2-1.1 0-5.8-20.6-6.9-30.5-1.6-13-1.3-36.6 0.4-49.9 1.5-11.1 5.7-29.5 8.9-38.3l1.5-4.2-3.2 1.9c-4 2.5-7.4 2.5-11.4 0-6.7-4.1-6.8-9-0.4-25 9-22.2 19.1-38 34.6-53.6 14.9-15.1 28.9-24.2 47.3-30.8 9.6-3.4 24.6-6.4 35.8-6.9 5.8-0.3 12-1.4 17.3-3.1 31-9.8 87.1-9.8 118-0.1 4.7 1.5 11.6 2.8 16.4 3.1 54.4 3.1 96.5 35.6 118.8 91.7 2.7 6.8 4.9 13.9 4.9 15.9 0 7.8-8.9 13-16 9.4-3-1.4-3.1-1.4-2.5 0.2 5.3 13.7 10.1 38.7 11.1 57.7 1 18.6-2.2 46.4-6.9 60.1l-1.3 3.5-5.1-6.3c-5.6-6.9-10.3-11.6-10.3-10.4 0 0.5-0.7 5.5-1.5 11.2-2.9 19.6-10.6 41.8-20.5 59.4-4.8 8.4-15.7 24.7-17.2 25.6-0.6 0.4-3.2-1.6-6-4.2l-5-4.9-1.6 2.5c-10.2 15.2-30.1 37.5-42.5 47.5l-4.8 3.9-7.4-8.6-12.8 12.5c-7.1 7-17 16-22 20-9.5 7.8-25.8 19.7-26.8 19.7-0.3 0-3.9-2.3-8-5.2zm21.5-18c13.3-10.3 39.6-35.2 39.6-37.5 0-0.8-7.4-9.9-16.5-20.4-10.3-11.8-35.341-46.099-35.341-47.399 0-1.2 2.1019-4.0707 3.1019-5.0707 3.7-4.1 22.639 24.469 44.339 49.569 11.4 13.2 21.2 24 21.9 24 2.9 0 25.9-25.9 35.5-40l3.9-5.7-33.2-33.8-33.1-33.8-2.1 2.8c-10.2 14.1-25.007 38.413-35.807 46.813l-5.6 4.2c-1.8413-1.3891-3.2223-2.4308-4.1429-3.1254-0.34602-0.26103-0.86504-0.65257-1.5571-1.1746-8.7-6.7-23.593-30.313-31.093-40.413l-6.8-9.1-33.2 33.9-33.1 33.8 4.9 7.1c10.7 15.2 31.7 38.5 34.7 38.5 0.6 0 10.3-10.8 21.7-24 21.5-25 39-53.469 42.8-49.569 3.4 3.4 2.7598 0.68022 4.5294 5.0707l-52.929 67.899 9.8 9.9c16 16.1 40.8 36.6 44.3 36.7 0.8 0 6.9-4.2 13.4-9.2zm-74-148.5 11-11.2-5.6-11.8c-3.1-6.5-6.4-14.4-7.4-17.6l-1.8-5.8-17.4 17.4-3.1-2.4c-5-4-13.4-15.3-18.5-24.9-2.6-5-4.9-9-5.2-9-0.8 0-30 23.8-39.3 32l-9.4 8.4 0.7 9.5c1.8 25.4 11.3 53.8 25.1 75.2l4.7 7.3 27.6-28c15.2-15.3 32.6-32.9 38.6-39.1zm192.3 60c14.6-24 23.3-50.1 24.9-74.9l0.7-9.9-6-5.5c-11.3-10.5-42.1-35.6-42.7-34.9-0.2 0.2-1.4 2.4-2.6 4.9-3.9 7.7-12.4 20.3-17.8 26l-5.1 5.5-9-8.9c-5-5-9.2-8.8-9.4-8.5-0.2 0.2-1.8 4.5-3.6 9.4-1.8 5-5.2 12.7-7.5 17.1l-4.2 8.2 38.4 39.1c21.1 21.5 38.7 39.1 39.1 39.1 0.3 0 2.5-3 4.8-6.7zm-124.09-33.175c18.5-16.5 36.595-47.825 45.295-73.325l2.9-8.3-14.9-15.1c-9.1-9.2-33.7-38-33.7-39.2 0-3.1 4.1422-6.636 7.1422-6.636 2.2 0 24.258 27.636 43.658 46.836 13.1 13 24.2 23.6 24.7 23.6 1.3-0.1 6.8-7.9 11.3-16.2 14.7-27.4 16.9-60.8 6.3-95.3l-1.9-6-6.4-1.2c-9.3-1.7-26.5-2.6-33.4-1.6l-5.9 0.8-5.4 9c-10.7 17.8-24.6 34-40.1 46.7l-7.2 6-6.3-5c-14.7-11.7-30.9-30.6-41.6-48.4l-5.2-8.6-7.6-0.8c-8.4-0.7-21.2 0-31.1 1.8l-6.2 1.2-2.5 8c-4.6 15.4-5.9 24.3-6 40.1 0 10.7 0.5 17.4 1.8 23.5 3.2 15 11.9 34.1 19.6 43l3 3.5 23.3-23.1c12.8-12.8 44.343-45.083 45.643-45.783 2.2-1.0667 4.4858 0.79437 6.8573 5.5831-15.067 17.533-26.6 30.267-34.6 38.2l-14.9 14.9 3.5 10c6.6 19.2 18.465 43.052 32.065 58.652 7.1 8.3 19.24 19.673 20.44 19.273 0.4-0.1 3.7-2.9 7.4-6.1zm172.19-71.025c0.6-23-0.7-35.3-5.3-53.6-3.1-11.9-8.1-26-12-33.5-1.1-2.1-5.2-5.1-13.6-10.1-11.4-6.8-33.1-16.9-36.1-16.9-1.2 0-1 1.7 0.8 8.9 4.8 18.9 5.6 44 1.9 60.6-0.9 3.9-2.4 9.5301-2.7 10.93-0.5 2.3 1.7 2.4699 16.4 14.17 19 15.3 33.9 28.4 42.3 37.2 5.7 6.1 5.9 6.2 6.8 4 0.5-1.3 1.2-11 1.5-21.7zm-345.5 12.3c12.2-11.6 27.6-24.8 43.2-36.9 5.5-4.3 9.9-8.3 9.8-8.9s-1.2-5.6-2.4-11.1c-3.9-17.9-3.1-42.5 2.2-62.4 1.1-4 1.8-7.5 1.6-7.7-0.1-0.2-5.1 1.6-10.9 4-11 4.5-19.1 8.7-31.5 16.3-7.1 4.4-7.2 4.5-11.1 13.6-10.4 23.9-14.5 44.1-14.6 71.7-0.1 17.3 0.9 32 2.1 32 0.3 0 5.5-4.8 11.6-10.6zm177-95.9c20.7-20.6 36.3-46.6 44-73.5 2.8-9.5 5.4-23.7 4.5-24.5-1.1-1.2-19.8-5.4-29.3-6.6-12.9-1.6-48.1-1.6-61 0-9.5 1.2-28.2 5.4-29.3 6.6-0.9 0.8 1.7 15 4.5 24.5 5.5 19.2 15.3 38.4 28 55.4 7.5 10.1 24.9 27.6 27.3 27.6 0.9 0 6-4.3 11.3-9.5zm-190.1-6.8c11-8.4 15.3-11.3 27.8-18.5 26.4-15.1 52.658-22.7 79.5-22.7 12.918 0 15.019 1.4 14.519 0-3.5-8.7-11.319-29.8-12.719-37.7l-1.8-9.8h-6.5c-9.1 0-23 3.1-34 7.5-30.5 12.2-51.8 33.3-67.4 66.7-4.6 9.9-8.9 20.8-8.1 20.8 0.3 0 4.2-2.8 8.7-6.3zm361.7-6.3c-15.3-38.4-42.1-65.3-76.4-76.8-9.2-3.1-22.6-5.6-29.9-5.6h-5.1l-2.3 11.1c-1.2 6-3.9 15.6-5.8 21.2-3.0071 8.5381-8.0025 13.798-6.086 14.731 1.9166 0.93278 7.4871-0.47693 14.386-0.43063 15 0.1 26.4 2.1 42.3 7.1 19.8 6.4 49.6 22.7 67 36.7 3 2.4 5.6 4 5.8 3.6 0.2-0.5-1.6-5.7-3.9-11.6z"/>
<path d="m143.82 98.152c-1.8471-3.2631 0-9.1177 4.3982-16.166 0.24325-0.38985 7.4472-14.187 7.6982-14.585 7.9169-12.526 10.902-39.196 10.902-56.196 0-11.8-1.6-11.2 30.9-11.2 25.2 0 27.9 0.2 29.3 1.8 1.1 1.2 1.6648 1 2.0648 9.2 1.1 20.1 7.5857 45.661 13.986 58.261s11.56 21.932 11.36 23.132c4.3558 8.5006-1.0057 7.8383-1.0798 7.79-10.424 0-33.13-54.683-35.03-79.983l-0.8-9.2h-19.8-19.9v4.3c-0.1 12.9-5.3458 35.357-10.2 50.9-3.0402 9.735-8.8626 23.136-15.165 29.497-3.7602 3.7953-7.4892 4.4714-8.6335 2.4498z"/>
</g>
</g>
</g>
</svg>
