<?xml version="1.0" encoding="UTF-8"?>
<svg width="1146px" height="1451px" viewBox="0 0 1146 1451" version="1.1" xmlns="http://www.w3.org/2000/svg" xmlns:xlink="http://www.w3.org/1999/xlink">
    <title>cyanara-512-2</title>
    <g id="Page-1" stroke="none" stroke-width="1" fill="none" fill-rule="evenodd">
        <g id="wells-garden-logo" transform="translate(0.000000, 0.000000)" fill="#000000" fill-rule="nonzero">
            <g id="Group" transform="translate(572.979587, 725.312706) scale(-1, 1) rotate(-180.000000) translate(-572.979587, -725.312706) translate(0.000000, 0.000000)">
                <path d="M561.101647,1442.925 C546.601647,1432.825 513.001647,1407.525 498.601647,1395.725 C476.001647,1377.225 453.901647,1356.825 419.001647,1322.425 C407.501647,1311.025 397.501647,1301.625 397.001647,1301.625 C396.401647,1301.625 391.301647,1307.025 385.701647,1313.625 C376.501647,1324.225 375.101647,1325.525 373.701647,1324.325 C372.801647,1323.525 366.701647,1318.525 360.101647,1313.125 C328.201647,1286.925 271.801647,1224.625 245.301647,1186.225 C240.801647,1179.725 236.401647,1173.425 235.501647,1172.325 C233.901647,1170.225 233.701647,1170.425 222.901647,1180.825 C216.801647,1186.625 210.001647,1192.625 207.701647,1194.125 C203.601647,1196.825 203.501647,1196.925 201.501647,1195.025 C196.301647,1190.425 173.801647,1157.225 158.301647,1131.525 C139.901647,1100.925 121.101647,1058.025 109.701647,1020.525 C101.101647,992.225 96.0016467,968.025 91.5016467,935.425 C90.0016467,924.525 88.8016467,918.625 88.0016467,918.625 C86.2016467,918.625 69.1016467,936.925 56.6016467,952.325 C48.2016467,962.725 44.9016467,966.125 44.3016467,965.125 C42.3016467,961.525 36.5016467,941.725 33.8016467,929.125 C23.7016467,882.625 18.6016467,819.125 21.6016467,777.125 C25.4016467,725.325 35.8016467,669.125 49.3016467,628.325 C51.8016467,620.725 53.6016467,614.325 53.3016467,614.025 C53.0016467,613.725 49.7016467,614.725 45.9016467,616.225 C32.5016467,621.825 18.1016467,619.325 8.8016467,609.725 C4.1016467,604.925 1.0016467,598.825 0.101646702,592.625 C-0.998353298,584.525 6.9016467,559.225 20.3016467,528.325 C71.1016467,410.825 152.201647,331.725 257.601647,296.925 C284.401647,288.125 316.101647,281.825 348.101647,279.125 C369.401647,277.325 380.701647,275.625 394.601647,272.025 C414.001647,267.125 412.401647,268.025 416.601647,258.525 C418.601647,253.925 426.401647,238.225 434.001647,223.725 C449.601647,193.625 454.501647,182.825 461.001647,163.125 C474.801647,120.925 483.701647,76.325 486.601647,33.625 C488.401647,7.325 489.901647,3.825 500.501647,1.425 C508.601647,-0.475 637.601647,-0.475 645.701647,1.425 C656.301647,3.825 657.801647,7.325 659.601647,33.625 C662.501647,76.325 671.401647,120.925 685.201647,163.125 C691.701647,182.825 696.601647,193.625 712.201647,223.725 C719.801647,238.225 727.601647,253.925 729.601647,258.525 C733.801647,268.025 732.201647,267.125 751.601647,272.025 C765.501647,275.625 776.801647,277.325 798.101647,279.125 C869.101647,285.125 930.001647,306.825 984.301647,345.325 C1050.50165,392.225 1104.90165,467.325 1137.00165,556.025 C1146.70165,582.725 1148.00165,591.625 1143.40165,601.325 C1136.10165,616.825 1117.40165,623.325 1100.30165,616.225 C1096.50165,614.725 1093.20165,613.725 1092.90165,614.025 C1092.60165,614.325 1094.40165,620.725 1096.90165,628.325 C1110.40165,669.125 1120.80165,725.325 1124.60165,777.125 C1127.60165,819.125 1122.50165,882.625 1112.40165,929.125 C1109.70165,941.725 1103.90165,961.525 1101.90165,965.125 C1101.30165,966.125 1098.00165,962.725 1089.60165,952.325 C1077.10165,936.925 1060.00165,918.625 1058.20165,918.625 C1057.40165,918.625 1056.20165,924.525 1054.70165,935.425 C1050.20165,968.025 1045.10165,992.225 1036.50165,1020.525 C1025.10165,1058.025 1006.30165,1100.925 987.901647,1131.525 C972.401647,1157.225 949.901647,1190.425 944.701647,1195.025 C942.701647,1196.925 942.601647,1196.825 938.501647,1194.125 C936.201647,1192.625 929.401647,1186.625 923.301647,1180.825 C912.501647,1170.425 912.301647,1170.225 910.701647,1172.325 C909.801647,1173.425 905.401647,1179.725 900.901647,1186.225 C874.401647,1224.625 818.001647,1286.925 786.101647,1313.125 C779.501647,1318.525 773.401647,1323.525 772.501647,1324.325 C771.101647,1325.525 769.701647,1324.225 760.501647,1313.625 C754.901647,1307.025 749.801647,1301.625 749.201647,1301.625 C748.701647,1301.625 738.701647,1311.025 727.201647,1322.425 C692.301647,1356.925 670.301647,1377.125 647.401647,1395.925 C624.701647,1414.525 575.401647,1450.725 572.901647,1450.62521 C572.501647,1450.525 567.201647,1447.125 561.101647,1442.925 Z M582.101647,1405.125 C594.301647,1397.025 613.601647,1382.425 626.601647,1371.425 C668.801647,1335.925 724.601647,1281.925 724.601647,1276.525 C724.601647,1273.825 713.601647,1259.925 683.501647,1224.625 C658.401647,1195.125 623.601647,1150.025 594.201647,1108.825 L585.501647,1096.625 L579.601647,1101.125 C576.401647,1103.625 573.501647,1105.625 573.101647,1105.625 C572.701647,1105.625 569.801647,1103.625 566.601647,1101.125 L560.701647,1096.625 L552.001647,1108.825 C522.601647,1150.025 487.801647,1195.125 462.701647,1224.625 C432.601647,1259.925 421.601647,1273.825 421.601647,1276.525 C421.601647,1282.025 478.201647,1336.825 520.101647,1371.925 C537.701647,1386.725 570.401647,1410.625 573.001647,1410.625 C573.501647,1410.625 577.601647,1408.125 582.101647,1405.125 Z M385.301647,1264.725 C417.101647,1230.525 453.001647,1188.125 488.601647,1143.125 C515.801647,1108.625 525.301647,1097.025 533.901647,1087.325 C540.201647,1080.325 540.47438,1077.73301 539.17438,1076.13301 C537.01259,1073.47335 536.694834,1073.12492 533.901647,1069.72901 C531.10846,1066.33309 519.37681,1051.04519 494.827797,1018.16385 C486.698138,1007.27486 452.401647,957.625 450.901647,955.825 L448.101647,952.525 L410.101647,991.325 C389.201647,1012.625 346.301647,1056.425 314.801647,1088.525 C273.501647,1130.525 257.601647,1147.325 258.101647,1148.425 C259.301647,1151.625 280.801647,1181.425 291.701647,1195.125 C317.001647,1226.825 352.501647,1265.925 364.901647,1275.725 C368.801647,1278.825 370.101647,1279.425 371.601647,1278.625 C372.601647,1278.125 378.801647,1271.825 385.301647,1264.725 Z M797.101647,1259.225 C823.601647,1232.625 855.501647,1194.625 876.601647,1164.625 C882.601647,1156.025 887.801647,1148.325 888.101647,1147.425 C888.601647,1146.325 872.701647,1129.525 831.401647,1087.525 C799.901647,1055.425 757.001647,1011.625 736.101647,990.325 L698.101647,951.525 L695.301647,954.825 C693.801647,956.625 685.895284,967.140277 678.401647,978.625 C666.006947,997.621074 656.267222,1011.13657 648.382826,1022.38808 C627.416117,1052.30884 619.59194,1061.85454 606.801647,1076.825 C605.501647,1078.325 606.101647,1079.325 612.801647,1086.825 C616.801647,1091.425 629.101647,1106.425 640.101647,1120.125 C681.701647,1172.325 686.701647,1178.525 700.201647,1194.725 C718.101647,1216.125 753.701647,1256.325 765.801647,1269.025 C774.801647,1278.325 775.401647,1278.825 777.701647,1277.625 C779.001647,1276.925 787.801647,1268.725 797.101647,1259.225 Z M381.901647,973.425 L431.701647,922.825 L421.201647,901.925 C409.601647,878.925 404.701647,867.825 395.801647,844.125 C392.501647,835.325 389.301647,826.825 388.701647,825.325 C387.801647,822.925 387.301647,822.725 385.601647,823.625 C384.501647,824.225 372.501647,835.525 358.901647,848.725 L334.301647,872.725 L326.201647,864.025 C304.201647,840.225 283.401647,810.725 267.901647,780.925 C264.301647,774.125 261.101647,768.425 260.601647,768.125 C257.901647,766.425 177.401647,832.125 135.401647,870.525 C118.201647,886.125 119.801647,881.225 122.101647,910.525 C126.101647,961.625 135.801647,1003.125 154.601647,1050.125 C167.401647,1082.125 189.201647,1123.625 203.201647,1142.625 L207.801647,1148.925 L270.001647,1086.525 C304.201647,1052.225 354.501647,1001.325 381.901647,973.425 Z M944.001647,1141.325 C958.401647,1120.925 979.101647,1081.325 991.601647,1050.125 C1010.40165,1003.125 1020.10165,961.625 1024.10165,910.525 C1026.40165,881.225 1028.00165,886.125 1010.90165,870.525 C968.801647,832.125 888.301647,766.425 885.601647,768.125 C885.101647,768.425 881.901647,774.125 878.301647,780.925 C862.801647,810.725 842.001647,840.225 820.001647,864.025 L811.901647,872.725 L787.301647,848.725 C773.701647,835.525 761.701647,824.225 760.601647,823.625 C758.901647,822.725 758.401647,822.925 757.501647,825.325 C756.901647,826.825 753.701647,835.325 750.401647,844.125 C741.501647,867.825 736.601647,878.925 725.001647,901.925 L714.501647,922.825 L764.301647,973.425 C845.601647,1056.225 937.901647,1148.525 938.801647,1148.02702 C939.201647,1147.725 941.601647,1144.725 944.001647,1141.325 Z M587.101647,1039.125 C624.401647,1007.425 659.301647,960.425 691.701647,898.125 C705.501647,871.425 717.201647,843.525 730.701647,804.425 L733.001647,797.725 L707.601647,771.925 C669.501647,733.325 608.101647,663.625 593.001647,641.725 C592.601647,641.325 589.501647,643.625 580.401647,651.225 L573.101647,657.325 L563.601647,649.525 C558.401647,645.125 553.901647,641.625 553.601647,641.625 C553.301647,641.625 551.801647,643.525 550.101647,645.925 C546.301647,651.225 526.001647,675.825 509.701647,694.625 C483.301647,725.125 463.201647,747.025 438.601647,771.925 L413.201647,797.725 L415.501647,804.425 C429.001647,843.525 440.701647,871.425 454.501647,898.125 C480.401647,947.825 508.801647,989.125 538.101647,1019.525 C549.801647,1031.725 572.401647,1050.925 573.901647,1049.925 C574.601647,1049.625 580.501647,1044.725 587.101647,1039.125 Z M85.6016467,873.325 C123.101647,836.225 177.901647,789.225 227.401647,751.925 C238.101647,743.825 247.301647,736.225 247.901647,734.925 C248.801647,732.925 248.101647,728.925 244.301647,713.325 C235.801647,678.325 234.101647,660.925 234.901647,618.625 C235.701647,580.125 238.301647,558.525 246.701647,523.525 C250.601647,507.125 251.401647,500.225 249.701647,499.225 C247.101647,497.625 221.301647,508.225 188.101647,524.625 C152.001647,542.425 119.801647,561.725 109.801647,571.525 C99.3016467,581.825 77.0016467,643.625 66.2016467,692.425 C56.5016467,736.125 53.5016467,774.925 55.5016467,830.925 C57.2016467,880.025 58.9016467,894.625 62.8016467,894.625 C63.4016467,894.625 73.7016467,885.025 85.6016467,873.325 Z M1086.10165,891.425 C1088.00165,886.825 1089.40165,868.325 1090.70165,830.925 C1093.50165,754.225 1086.20165,701.125 1063.60165,633.625 C1052.50165,600.325 1042.50165,577.525 1036.40165,571.525 C1026.40165,561.725 994.201647,542.425 958.101647,524.625 C924.901647,508.225 899.101647,497.625 896.501647,499.225 C894.801647,500.225 895.601647,507.125 899.501647,523.525 C907.901647,558.525 910.501647,580.125 911.301647,618.625 C912.101647,660.925 910.401647,678.325 901.901647,713.325 C898.101647,728.925 897.401647,732.925 898.301647,734.925 C898.901647,736.225 908.101647,743.825 918.801647,751.925 C968.401647,789.325 1023.40165,836.425 1060.60165,873.325 C1072.40165,885.025 1082.70165,894.625 1083.40165,894.625 C1084.10165,894.625 1085.30165,893.125 1086.10165,891.425 Z M343.401647,818.525 C359.201647,804.025 416.301647,747.725 431.401647,731.625 C440.501647,722.025 463.801647,696.325 483.101647,674.625 C502.501647,652.825 521.201647,632.125 524.801647,628.625 L531.301647,622.125 L514.201647,604.625 C481.401647,571.025 460.301647,543.425 432.901647,498.125 L421.901647,480.125 L413.001647,478.725 C407.001647,477.825 395.601647,477.325 377.601647,477.325 C345.201647,477.325 323.901647,479.325 296.101647,484.925 L290.201647,486.125 L286.801647,496.625 C281.901647,511.825 274.101647,543.125 271.701647,557.625 C258.901647,634.125 267.301647,704.425 296.601647,765.425 C310.001647,793.125 330.501647,824.625 335.301647,824.625 C336.001647,824.625 339.701647,821.825 343.401647,818.525 Z M814.801647,821.925 C819.201647,817.225 828.501647,803.725 835.801647,791.425 C881.201647,714.625 892.201647,623.425 867.601647,526.125 C865.001647,515.725 861.301647,502.425 859.401647,496.625 L856.001647,486.125 L850.101647,484.925 C822.301647,479.325 801.001647,477.325 768.601647,477.325 C750.601647,477.325 739.201647,477.825 733.201647,478.725 L724.301647,480.125 L713.301647,498.125 C685.901647,543.425 664.801647,571.025 632.001647,604.625 L614.901647,622.125 L621.401647,628.625 C625.001647,632.125 643.701647,652.825 663.101647,674.625 C709.101647,726.225 724.601647,742.725 763.701647,780.725 C801.501647,817.525 809.101647,824.625 810.901647,824.625 C811.601647,824.625 813.401647,823.425 814.801647,821.925 Z M579.301647,609.825 C606.801647,588.025 642.801647,547.525 667.901647,510.125 C684.901647,484.825 706.501647,444.125 717.101647,417.125 C730.901647,382.325 744.601647,328.625 744.601647,309.625 C744.601647,302.725 745.601647,303.225 724.101647,297.825 C694.001647,290.225 666.901647,285.425 642.601647,283.425 C621.701647,281.725 524.501647,281.725 503.601647,283.425 C479.301647,285.425 452.201647,290.225 422.101647,297.825 C400.601647,303.225 401.601647,302.725 401.601647,309.625 C401.601647,322.725 410.501647,362.925 419.401647,390.225 C426.801647,412.725 432.701647,426.825 445.101647,452.125 C467.901647,498.525 492.401647,534.025 528.901647,573.825 C544.301647,590.625 569.901647,613.625 573.101647,613.625 C573.801647,613.625 576.601647,611.925 579.301647,609.825 Z M43.3016467,578.425 C46.7016467,576.025 55.0016467,569.925 61.8016467,564.725 C107.301647,530.025 176.801647,491.825 231.301647,471.325 C258.601647,461.025 297.801647,451.525 327.101647,448.025 C340.301647,446.425 356.801647,446.225 398.601647,446.925 C408.801647,447.125 409.101647,447.025 409.401647,444.825 C409.601647,443.525 407.001647,437.525 403.101647,430.125 C394.501647,413.925 391.801647,407.225 386.301647,388.525 C380.101647,367.725 377.201647,356.025 372.201647,332.225 L368.001647,312.125 L350.501647,312.225 C331.001647,312.425 314.701647,314.825 289.901647,321.025 C257.801647,329.125 224.301647,343.325 196.801647,360.625 C140.501647,396.025 92.7016467,450.825 61.0016467,516.525 C50.7016467,537.825 40.7016467,562.325 36.3016467,577.425 C34.3016467,583.925 35.1016467,584.025 43.3016467,578.425 Z M1109.90165,571.425 C1103.10165,548.125 1086.30165,510.325 1071.60165,484.625 C1045.10165,438.525 1009.80165,398.125 970.401647,369.025 C936.401647,343.925 897.201647,325.325 856.301647,315.025 C831.501647,308.825 815.201647,306.425 795.701647,306.225 L778.201647,306.125 L774.001647,326.225 C769.001647,350.025 766.101647,361.725 759.901647,382.525 C754.401647,401.225 751.701647,407.925 743.101647,424.125 C739.201647,431.525 736.601647,437.525 736.801647,438.825 C737.101647,441.025 737.401647,441.125 747.601647,440.925 C789.401647,440.225 805.901647,440.425 819.101647,442.025 C848.401647,445.525 887.601647,455.025 914.901647,465.325 C969.401647,485.825 1038.90165,524.025 1084.40165,558.725 C1099.90165,570.525 1108.70165,576.625 1110.30165,576.625 C1111.20165,576.625 1111.10165,575.325 1109.90165,571.425 Z M462.101647,256.625 C527.001647,246.225 619.201647,246.225 684.101647,256.625 C691.001647,257.725 697.101647,258.625 697.601647,258.625 C698.201647,258.625 697.101647,255.825 695.101647,252.425 C687.601647,239.425 670.501647,203.425 663.301647,185.125 C642.401647,132.525 631.401647,91.025 627.801647,52.125 L626.001647,32.125 L573.101647,32.125 L520.201647,32.125 L518.401647,52.125 C514.801647,91.025 503.801647,132.525 482.901647,185.125 C475.701647,203.425 458.601647,239.425 451.101647,252.425 C449.101647,255.825 448.001647,258.625 448.601647,258.625 C449.101647,258.625 455.201647,257.725 462.101647,256.625 Z" id="Shape"></path>
            </g>
        </g>
    </g>
</svg>