<?xml version="1.0" encoding="UTF-8"?>
<!DOCTYPE svg  PUBLIC '-//W3C//DTD SVG 20010904//EN'  'http://www.w3.org/TR/2001/REC-SVG-20010904/DTD/svg10.dtd'>
<svg width="1329pt" height="1544pt" version="1.0" viewBox="0 0 1329 1544" xmlns="http://www.w3.org/2000/svg">
<g transform="translate(0 1544) scale(.1 -.1)">
<path d="m6255 14813c-145-101-481-354-625-472-226-185-447-389-796-733-115-114-215-208-220-208-6 0-57 54-113 120-92 106-106 119-120 107-9-8-70-58-136-112-319-262-883-885-1148-1269-45-65-89-128-98-139-16-21-18-19-126 85-61 58-129 118-152 133-41 27-42 28-62 9-52-46-277-378-432-635-184-306-372-735-486-1110-86-283-137-525-182-851-15-109-27-168-35-168-18 0-189 183-314 337-84 104-117 138-123 128-20-36-78-234-105-360-101-465-152-1100-122-1520 38-518 142-1080 277-1488 25-76 43-140 40-143s-36 7-74 22c-134 56-278 31-371-65-47-48-78-109-87-171-11-81 68-334 202-643 508-1175 1319-1966 2373-2314 268-88 585-151 905-178 213-18 326-35 465-71 194-49 178-40 220-135 20-46 98-203 174-348 156-301 205-409 270-606 138-422 227-868 256-1295 18-263 33-298 139-322 81-19 1371-19 1452 0 106 24 121 59 139 322 29 427 118 873 256 1295 65 197 114 305 270 606 76 145 154 302 174 348 42 95 26 86 220 135 139 36 252 53 465 71 710 60 1319 277 1862 662 662 469 1206 1220 1527 2107 97 267 110 356 64 453-73 155-260 220-431 149-38-15-71-25-74-22s15 67 40 143c135 408 239 970 277 1488 30 420-21 1055-122 1520-27 126-85 324-105 360-6 10-39-24-123-128-125-154-296-337-314-337-8 0-20 59-35 168-45 326-96 568-182 851-114 375-302 804-486 1110-155 257-380 589-432 635-20 19-21 18-62-9-23-15-91-75-152-133-108-104-110-106-126-85-9 11-53 74-98 139-265 384-829 1007-1148 1269-66 54-127 104-136 112-14 12-28-1-120-107-56-66-107-120-113-120-5 0-105 94-220 208-349 345-569 547-798 735-227 186-720 548-745 547-4-1-57-35-118-77zm210-378c122-81 315-227 445-337 422-355 980-895 980-949 0-27-110-166-411-519-251-295-599-746-893-1158l-87-122-59 45c-32 25-61 45-65 45s-33-20-65-45l-59-45-87 122c-294 412-642 863-893 1158-301 353-411 492-411 519 0 55 566 603 985 954 176 148 503 387 529 387 5 0 46-25 91-55zm-1968-1414c318-342 677-766 1033-1216 272-345 367-461 453-558 63-70 68-79 55-95-175-205-251-309-716-982-77-113-154-220-169-238l-28-33-380 388c-209 213-638 651-953 972-413 420-572 588-567 599 12 32 227 330 336 467 253 317 608 708 732 806 39 31 52 37 67 29 10-5 72-68 137-139zm4118-45c265-266 584-646 795-946 60-86 112-163 115-172 5-11-154-179-567-599-315-321-744-759-953-972l-380-388-28 33c-15 18-92 125-169 238-465 673-540 776-716 982-13 15-7 25 60 100 40 46 163 196 273 333 416 522 466 584 601 746 179 214 535 616 656 743 90 93 96 98 119 86 13-7 101-89 194-184zm-4152-2858 498-506-105-209c-116-230-165-341-254-578-33-88-65-173-71-188-9-24-14-26-31-17-11 6-131 119-267 251l-246 240-81-87c-220-238-428-533-583-831-36-68-68-125-73-128-27-17-832 640-1252 1024-172 156-156 107-133 400 40 511 137 926 325 1396 128 320 346 735 486 925l46 63 622-624c342-343 845-852 1119-1131zm5621 1679c144-204 351-600 476-912 188-470 285-885 325-1396 23-293 39-244-132-400-421-384-1226-1041-1253-1024-5 3-37 60-73 128-155 298-363 593-583 831l-81 87-246-240c-136-132-256-245-267-251-17-9-22-7-31 17-6 15-38 100-71 188-89 237-138 348-254 578l-105 209 498 506c813 828 1736 1751 1745 1746 4-3 28-33 52-67zm-3569-1022c373-317 722-787 1046-1410 138-267 255-546 390-937l23-67-254-258c-381-386-995-1083-1146-1302-4-4-35 19-126 95l-73 61-95-78c-52-44-97-79-100-79s-18 19-35 43c-38 53-241 299-404 487-264 305-465 524-711 773l-254 258 23 67c135 391 252 670 390 937 259 497 543 910 836 1214 117 122 343 314 358 304 7-3 66-52 132-108zm-5015-1658c375-371 923-841 1418-1214 107-81 199-157 205-170 9-20 2-60-36-216-85-350-102-524-94-947 8-385 34-601 118-951 39-164 47-233 30-243-26-16-284 90-616 254-361 178-683 371-783 469-105 103-328 721-436 1209-97 437-127 825-107 1385 17 491 34 637 73 637 6 0 109-96 228-213zm10005 181c19-46 33-231 46-605 28-767-45-1298-271-1973-111-333-211-561-272-621-100-98-422-291-783-469-332-164-590-270-616-254-17 10-9 79 30 243 84 350 110 566 118 951 8 423-9 597-94 947-38 156-45 196-36 216 6 13 98 89 205 170 496 374 1046 845 1418 1214 118 117 221 213 228 213s19-15 27-32zm-7427-729c158-145 729-708 880-869 91-96 324-353 517-570 194-218 381-425 417-460l65-65-171-175c-328-336-539-612-813-1065l-110-180-89-14c-60-9-174-14-354-14-324 0-537 20-815 76l-59 12-34 105c-49 152-127 465-151 610-128 765-44 1468 249 2078 134 277 339 592 387 592 7 0 44-28 81-61zm4714 34c44-47 137-182 210-305 454-768 564-1680 318-2653-26-104-63-237-82-295l-34-105-59-12c-278-56-491-76-815-76-180 0-294 5-354 14l-89 14-110 180c-274 453-485 729-813 1065l-171 175 65 65c36 35 223 242 417 460 460 516 615 681 1006 1061 378 368 454 439 472 439 7 0 25-12 39-27zm-2355-2121c275-218 635-623 886-997 170-253 386-660 492-930 138-348 275-885 275-1075 0-69 10-64-205-118-301-76-572-124-815-144-209-17-1181-17-1390 0-243 20-514 68-815 144-215 54-205 49-205 118 0 131 89 533 178 806 74 225 133 366 257 619 228 464 473 819 838 1217 154 168 410 398 442 398 7 0 35-17 62-38zm-5360-314c34-24 117-85 185-137 455-347 1150-729 1695-934 273-103 665-198 958-233 132-16 297-18 715-11 102 2 105 1 108-21 2-13-24-73-63-147-86-162-113-229-168-416-62-208-91-325-141-563l-42-201-175 1c-195 2-358 26-606 88-321 81-656 223-931 396-563 354-1041 902-1358 1559-103 213-203 458-247 609-20 65-12 66 70 10zm10666-10c-68-233-236-611-383-868-265-461-618-865-1012-1156-340-251-732-437-1141-540-248-62-411-86-606-88l-175-1-42 201c-50 238-79 355-141 563-55 187-82 254-168 416-39 74-65 134-63 147 3 22 6 23 108 21 418-7 583-5 715 11 293 35 685 130 958 233 545 205 1240 587 1695 934 155 118 243 179 259 179 9 0 8-13-4-52zm-6478-3208c649-104 1571-104 2220 0 69 11 130 20 135 20 6 0-5-28-25-62-75-130-246-490-318-673-209-526-319-941-355-1330l-18-200h-529-529l-18 200c-36 389-146 804-355 1330-72 183-243 543-318 673-20 34-31 62-25 62 5 0 66-9 135-20z"/>
</g>
</svg>
