<?xml version="1.0" standalone="yes"?><svg xmlns="http://www.w3.org/2000/svg" xmlns:xlink="http://www.w3.org/1999/xlink" data-v-2cb57da0="" version="1.0" width="340" height="250" viewBox="0 0 340.000000 250.000000" preserveAspectRatio="xMidYMid meet" color-interpolation-filters="sRGB" style="margin: auto;zoom: 1;" visibility="visible"><rect data-v-2cb57da0="" x="0" y="0" width="100%" height="100%" fill="#FFFFFF" fill-opacity="1" class="background" visibility="hidden"></rect><rect x="0px" height="100%" y="0px" data-v-2cb57da0="" width="100%" class="watermarklayer" fill="url(&quot;#watermark&quot;)" fill-opacity="1" visibility="hidden"></rect><g data-v-2cb57da0="" fill="aqua" class="icon-text-wrapper icon-svg-group iconsvg" transform="translate(47.04999542236328,71.88182830810547)"><g class="iconsvg-imagesvg" transform="translate(92.95000457763672,0)" fill="#1C085D"><g fill="#1C085D"><rect height="60" x="0px" y="0px" stroke-width="2px" width="60" class="image-rect" fill="#1C085D" fill-opacity="0"></rect><svg filter="url(#colors1512578186)" x="0" y="0" width="60" height="60" filtersec="colorsf5391895311" class="image-svg-svg primary" style="overflow: visible;" fill="#1C085D"><svg xmlns="http://www.w3.org/2000/svg" viewBox="0 0 64 64" fill="#1C085D" visibility="visible"><path fill="none" d="M0,0 h64 v64 H0 " visibility="visible"></path><path d="M54.627 9.373c-2.514-2.514-7.276-2.112-12.259.802.172.845.319 1.716.422 2.626.14 1.253.21 2.496.21 3.699 0 3.591-.576 7.055-1.665 10.016-1.008 2.742-2.424 4.953-4.095 6.396a8.896 8.896 0 0 1-2.212 1.421c.059.005.112.021.172.025.195.014.396.021.599.021 1.747 0 3.751-.503 5.84-1.47 2.655-1.225 5.313-3.127 7.693-5.505a35.939 35.939 0 0 0 2.306-2.583l.006-.007c4.804-6.044 6.031-12.394 2.983-15.441z" fill="#000000"></path><path d="M54.767,23.901 a30.496,30.496 0 0 1 -1.558,2.156 a38.292,38.292 0 0 1 -2.453,2.75 c-2.555,2.553 -5.414,4.596 -8.279,5.917 c-2.337,1.082 -4.646,1.654 -6.678,1.654 c-.251,0 -.497,-.008 -.738,-.025 l-.108,-.007 l-.198,-.032 l-1.964,-.18 c1.236,1.336 3.086,2.484 5.385,3.326 C40.918,40.467 44.143,41 47.5,41 c1.133,0 2.301,-.066 3.474,-.196 C58.644,39.931 64,36.31 64,32 c0,-3.556 -3.651,-6.638 -9.233,-8.099 M9.244,40.095 c.482,-.729 .996,-1.452 1.566,-2.162 a31.594,31.594 0 0 1 2.447,-2.753 a35.609,35.609 0 0 1 2.759,-2.462 c1.792,-1.428 3.645,-2.585 5.511,-3.443 c2.314,-1.072 4.613,-1.64 6.643,-1.64 h2.811 c-1.233,-1.24 -2.999,-2.303 -5.157,-3.093 c-1.795,-.66 -3.764,-1.112 -5.854,-1.345 c-2.421,-.269 -4.845,-.25 -6.931,0 c-2.099,.234 -4.072,.687 -5.863,1.345 c-2.422,.887 -4.353,2.109 -5.581,3.533 C.552,29.273 0,30.631 0,32 s.552,2.727 1.593,3.923 c1.23,1.426 3.161,2.649 5.583,3.535 c.663,.244 1.358,.45 2.068,.637 " fill="#000000"></path><path d="M21.208 51.183A31.232 31.232 0 0 1 21 47.5c0-1.208.07-2.451.208-3.692.247-2.215.725-4.3 1.42-6.198l.028-.085c.844-2.338 2.017-4.288 3.399-5.726l.975-.99 1.192-1.173c-1.748-.011-3.76.484-5.861 1.457-1.718.79-3.433 1.862-5.097 3.188a33.566 33.566 0 0 0-2.593 2.313 29.623 29.623 0 0 0-2.302 2.591c-1.33 1.657-2.406 3.373-3.197 5.096-1.09 2.353-1.591 4.582-1.451 6.438.107 1.585.679 2.938 1.65 3.909.972.973 2.324 1.543 3.902 1.65.206.016.416.023.631.023 1.727 0 3.721-.503 5.812-1.472.642-.295 1.28-.641 1.916-1.013a29.937 29.937 0 0 1-.424-2.633z" fill="#000000"></path><path d="M37.942 53.208a37.91 37.91 0 0 1-2.75-2.453c-2.551-2.551-4.594-5.41-5.917-8.279-1.109-2.395-1.678-4.763-1.646-6.846l.041-2.647c-1.264 1.244-2.339 3.02-3.122 5.187l-.043.127c-.64 1.749-1.081 3.676-1.31 5.732A31.812 31.812 0 0 0 23 47.5c0 1.215.066 2.382.196 3.461.234 2.099.687 4.072 1.345 5.863.887 2.422 2.109 4.353 3.533 5.581C29.273 63.448 30.631 64 32 64c1.368 0 2.727-.552 3.923-1.593 1.427-1.23 2.649-3.161 3.535-5.582.244-.664.45-1.359.637-2.068a30.178 30.178 0 0 1-2.153-1.549z" fill="#000000"></path><path d="M51.2 42.791c-1.25.139-2.493.209-3.7.209-3.59 0-7.053-.576-10.016-1.664-2.577-.943-4.709-2.273-6.163-3.845l-1.003-1.085-.289-.313-.399-.432c-.028 1.78.469 3.833 1.462 5.978 1.225 2.656 3.127 5.315 5.505 7.693a35.43 35.43 0 0 0 2.591 2.311c3.822 3.04 7.767 4.647 10.921 4.647 1.832 0 3.398-.542 4.519-1.663 2.514-2.514 2.113-7.276-.801-12.258-.846.171-1.717.318-2.627.422z" fill="#000000"></path><g fill="#1C085D"><path d="M40.803,13.027 C39.93,5.357 36.31,0 32,0 c-3.557,0 -6.639,3.653 -8.1,9.238 c.726,.479 1.448,.989 2.159,1.555 l.407,.336 a31.558,31.558 0 0 1 2.355,2.128 a35.402,35.402 0 0 1 2.462,2.759 c1.428,1.792 2.585,3.645 3.443,5.51 c1.082,2.337 1.649,4.65 1.641,6.684 l-.012,2.791 c1.236,-1.224 2.303,-2.997 3.104,-5.176 C40.467,23.083 41,19.858 41,16.5 c0,-1.13 -.066,-2.298 -.197,-3.473" fill="#000000" visibility="visible"></path></g><path d="M10.184,21.634 a30.584,30.584 0 0 1 6.258,-.632 c1.251,0 2.512,.07 3.749,.207 c2.25,.25 4.377,.741 6.324,1.456 c2.204,.807 4.071,1.915 5.478,3.203 l1.025,.979 l1.348,1.355 c.008,-1.742 -.488,-3.746 -1.457,-5.84 c-.79,-1.718 -1.862,-3.432 -3.188,-5.096 a33.566,33.566 0 0 0 -2.313,-2.593 a29.595,29.595 0 0 0 -2.217,-2.002 l-.377,-.312 c-1.666,-1.326 -3.38,-2.398 -5.093,-3.185 c-2.353,-1.089 -4.583,-1.593 -6.438,-1.451 c-1.585,.107 -2.938,.679 -3.909,1.65 c-.972,.972 -1.543,2.324 -1.65,3.902 c-.141,1.864 .36,4.092 1.449,6.442 c.293,.642 .64,1.28 1.011,1.917" fill="#000000" visibility="visible"></path></svg></svg><defs visibility="visible"><filter id="colors1512578186" visibility="visible"><feColorMatrix type="matrix" values="0 0 0 0 0.109375 0 0 0 0 0.03125 0 0 0 0 0.36328125 0 0 0 1 0" class="icon-fecolormatrix" visibility="visible"></feColorMatrix></filter><filter id="colorsf5391895311" visibility="visible"><feColorMatrix type="matrix" values="0 0 0 0 0.99609375 0 0 0 0 0.99609375 0 0 0 0 0.99609375 0 0 0 1 0" class="icon-fecolormatrix" visibility="visible"></feColorMatrix></filter><filter id="colorsb2494930715" visibility="visible"><feColorMatrix type="matrix" values="0 0 0 0 0 0 0 0 0 0 0 0 0 0 0 0 0 0 1 0" class="icon-fecolormatrix" visibility="visible"></feColorMatrix></filter><pattern id="watermark" patternUnits="userSpaceOnUse" width="100%" height="100%" visibility="visible"><image xlink:href="https://www.logoai.com/img/LOGOAI-watermark.png" x="0" y="0" width="100%" height="100%" visibility="visible"></image></pattern></defs></g></g><g transform="translate(0,67)" fill="#1C085D" visibility="visible"><g data-gra="path-name" fill-rule="" class="tp-name iconsvg-namesvg" transform="translate(0,0)" fill="#1C085D" visibility="visible"><g transform="scale(1)" fill="#1C085D" visibility="visible"><g fill="#1C085D" visibility="visible"><path d="M2.11-19.24L9.37 0.49 10.33 0.49 16.4-17.56 23.3 0.49 24.29 0.49 30.82-19.14C31.41-20.95 32.8-22.27 34.58-22.8L34.58-23.1 27.82-23.1 27.82-22.8 28.74-22.54C29.8-22.21 30.36-21.19 30-20.13L25.14-5.71 18.28-23.59 17.29-23.59 11.25-5.71 5.94-20.13C5.51-21.35 6.17-22.51 7.42-22.74L7.75-22.8 7.75-23.1-1.58-23.1-1.58-22.8C0.07-22.47 1.39-21.22 2.11-19.24ZM52.1-4.72C48.9-6.9 48.9-0.66 47.32-0.66L41.74-0.66C40.69-0.66 39.9-1.45 39.9-2.51L39.9-11.88 40.56-11.88C42.57-11.88 44.55-10.89 45.7-9.24L45.93-8.91 46.33-8.91 46.33-15.51 45.93-15.51 45.7-15.18C44.55-13.53 42.57-12.54 40.56-12.54L39.9-12.54 39.9-20.76C39.9-21.61 40.39-22.44 41.18-22.44L47.32-22.44C48.9-22.44 48.9-16.2 52.1-18.38 51.21-18.38 50.72-22.8 52.01-22.8L52.01-23.1 33.36-23.1 33.36-22.8 34.52-22.57C35.37-22.41 35.94-21.71 35.94-20.86L35.94-2.24C35.94-1.39 35.37-0.69 34.52-0.53L33.36-0.3 33.36 0 52.01 0 52.01-0.3C50.72-0.3 51.21-4.72 52.1-4.72ZM71.8-4.72C68.6-6.9 68.6-0.66 67.02-0.66L61.44-0.66C60.39-0.66 59.6-1.45 59.6-2.51L59.6-20.86C59.6-21.71 60.12-22.41 60.88-22.54L62.17-22.8 62.17-23.1 53.06-23.1 53.06-22.8 54.22-22.57C55.07-22.41 55.64-21.71 55.64-20.86L55.64-2.24C55.64-1.39 55.07-0.69 54.22-0.53L53.06-0.3 53.06 0 71.71 0 71.71-0.3C70.42-0.3 70.91-4.72 71.8-4.72ZM91.31-4.72C88.11-6.9 88.11-0.66 86.52-0.66L80.95-0.66C79.89-0.66 79.1-1.45 79.1-2.51L79.1-20.86C79.1-21.71 79.63-22.41 80.38-22.54L81.67-22.8 81.67-23.1 72.56-23.1 72.56-22.8 73.72-22.57C74.58-22.41 75.14-21.71 75.14-20.86L75.14-2.24C75.14-1.39 74.58-0.69 73.72-0.53L72.56-0.3 72.56 0 91.21 0 91.21-0.3C89.92-0.3 90.42-4.72 91.31-4.72ZM108.04-8.91C106.72-10.66 104.54-11.98 102.06-13.07 100.78-13.6 99.69-14.12 98.67-14.68 96.26-15.97 95.17-17.23 95.17-18.81 95.17-21.25 97.15-22.93 99.95-22.93 103.45-22.93 104.24-20.72 104.24-19.57 104.24-18.58 103.75-17.39 102.92-17.23 102.92-16.4 103.91-15.54 105.03-15.54 107.05-15.54 107.74-17.39 107.74-18.58 107.74-20.16 105.79-23.63 99.52-23.59 97.38-23.59 95.53-22.97 94.21-22.01 92.82-20.95 92.07-19.63 92.07-18.15 92.07-16.83 92.4-15.77 93.12-14.85 94.44-13.1 96.62-11.78 99.13-10.69 100.41-10.13 101.47-9.64 102.49-9.07 104.9-7.79 105.99-6.53 105.99-4.95 105.99-2.01 103.81-0.13 100.38-0.16 96.52-0.2 95.63-2.74 95.63-4.32 95.63-5.38 96.16-6.37 97.11-6.53 97.11-7.42 95.99-8.41 94.77-8.41 92.53-8.41 91.8-6.37 91.8-5.05 91.8-3.3 93.91 0.49 100.81 0.49 103.22 0.49 105.33-0.2 106.78-1.25 108.3-2.41 109.13-3.89 109.13-5.61 109.13-6.9 108.8-7.95 108.04-8.91ZM117.97-11.55C117.97-7.82 119.06-4.75 121.17-2.51 122.95-0.63 125.76 0.49 128.33 0.49 130.67 0.49 132.98-0.43 134.5-1.91 136.32-3.66 137.27-5.91 137.27-8.74L137.27-11.55 130.01-11.55 130.01-10.56 133.31-10.56 133.31-8.74C133.31-5.64 132.75-3.27 131.73-1.85 130.74-0.49 129.49 0 128.33 0 126.85 0 125.33-0.79 124.27-2.38 123.02-4.22 122.36-7.39 122.36-11.55 122.36-15.58 123.05-18.71 124.34-20.59 125.46-22.18 126.88-22.93 128.63-22.93 132.46-22.93 132.92-19.73 132.92-18.25 132.92-17.59 132.42-16.73 131.6-16.57 131.6-15.74 132.59-14.88 133.71-14.88 135.72-14.88 136.42-16.73 136.42-17.92 136.42-19.83 134.47-23.63 128.2-23.59 125.56-23.59 122.99-22.47 121.2-20.62 119.06-18.35 117.97-15.31 117.97-11.55ZM152.78-3C153.51-1.09 153.11-0.69 151.07-0.3L151.07 0 160.41 0 160.41-0.3C158.76-0.63 157.4-1.85 156.68-3.73L148.82-23.59 147.87-23.59 140.47-3.76C139.85-2.05 138.49-0.86 136.75-0.33L136.68-0.3 136.68 0 143.48 0 143.48-0.3 142.62-0.56C141.5-0.89 140.97-1.95 141.4-3.04L142.82-6.76 151.3-6.76ZM146.91-17.92L151.03-7.39 143.05-7.39ZM159.19-23.1L159.19-22.8 160.34-22.57C161.2-22.41 161.76-21.71 161.76-20.86L161.76-2.24C161.76-1.39 161.2-0.69 160.34-0.53L159.19-0.3 159.19 0 168.29 0 168.29-0.3 167.14-0.53C166.28-0.69 165.72-1.39 165.72-2.24L165.72-11.55 167.27-11.55C170.64-11.55 172.38-10.76 172.91-7.42L173.54-3.23C173.9-0.82 175.32 0.49 177.37 0.49 178.69 0.49 180.14-0.03 180.7-0.99L180.01-1.32C179.78-1.02 179.35-0.49 178.85-0.49 178.36-0.49 178.06-0.89 177.96-1.65L177.1-7.42C176.54-11.15 173.11-11.55 169.65-11.88 171.23-11.98 172.65-12.24 173.87-12.67 174.93-13.07 176.11-13.56 176.84-14.32 177.73-15.25 178.16-16.17 178.16-17.32 178.16-18.94 177.24-20.33 175.49-21.38 173.74-22.41 170.97-23.1 167.27-23.1ZM173.77-17.32C173.77-13.99 171.46-12.21 167.27-12.21L165.72-12.21 165.72-22.44 167.27-22.44C171.46-22.44 173.77-20.66 173.77-17.32ZM180.8-23.1L180.8-22.8 181.95-22.57C182.81-22.41 183.37-21.71 183.37-20.86L183.37-2.24C183.37-1.39 182.81-0.69 181.95-0.53L180.8-0.3 180.8 0 188.45 0C192.25 0 195.58-1.09 197.89-3.04 200.43-5.15 201.72-8.02 201.72-11.55 201.72-15.01 200.43-17.92 197.89-20.03 195.58-22.01 192.22-23.1 188.45-23.1ZM188.45-22.44C191.03-22.44 193.17-21.58 194.72-19.9 196.41-18.12 197.3-15.18 197.3-11.55 197.3-7.92 196.41-4.98 194.72-3.2 193.17-1.52 191.03-0.66 188.45-0.66L187.33-0.66 187.33-22.44ZM221.59-4.72C218.38-6.9 218.38-0.66 216.8-0.66L211.22-0.66C210.17-0.66 209.38-1.45 209.38-2.51L209.38-11.88 210.04-11.88C212.05-11.88 214.03-10.89 215.18-9.24L215.41-8.91 215.81-8.91 215.81-15.51 215.41-15.51 215.18-15.18C214.03-13.53 212.05-12.54 210.04-12.54L209.38-12.54 209.38-20.76C209.38-21.61 209.87-22.44 210.66-22.44L216.8-22.44C218.38-22.44 218.38-16.2 221.59-18.38 220.69-18.38 220.2-22.8 221.49-22.8L221.49-23.1 202.84-23.1 202.84-22.8 204-22.57C204.86-22.41 205.42-21.71 205.42-20.86L205.42-2.24C205.42-1.39 204.86-0.69 204-0.53L202.84-0.3 202.84 0 221.49 0 221.49-0.3C220.2-0.3 220.69-4.72 221.59-4.72ZM240.33-6.2L228.42-23.1 222.31-23.1 222.31-22.8 223.8-22.44C224.59-22.24 225.12-21.58 225.12-20.76L225.12-2.41C225.12-1.65 224.62-0.99 223.9-0.76L222.31-0.3 222.31 0 229.08 0 229.08-0.3 227.53-0.76C226.8-0.99 226.3-1.62 226.3-2.38L226.3-19.87 240.59 0.33 241.52 0.33 241.52-20.69C241.52-21.45 242.01-22.11 242.74-22.34L244.32-22.8 244.32-23.1 237.56-23.1 237.56-22.8 239.11-22.34C239.83-22.11 240.33-21.48 240.33-20.72Z" transform="translate(1.5799999237060547, 23.590343475341797)" fill="#1C085D" visibility="visible"></path></g></g></g><g data-gra="path-slogan" fill-rule="" class="tp-slogan iconsvg-slogansvg" fill="#CD8C2A" transform="translate(85.62500381469727,31.08034324645996)" visibility="visible"><g transform="scale(1, 1)" fill="#CD8C2A" visibility="visible"><g transform="scale(1)" fill="#CD8C2A" visibility="visible"><path d="M1.94 0L0.28-7.87L1.31-7.87L2.14-3.59Q2.24-2.94 2.36-2.32Q2.48-1.69 2.59-1.04L2.59-1.04L2.64-1.04Q2.77-1.69 2.92-2.32Q3.06-2.95 3.19-3.59L3.19-3.59L4.28-7.87L5.20-7.87L6.29-3.59Q6.43-2.96 6.58-2.33Q6.72-1.69 6.86-1.04L6.86-1.04L6.91-1.04Q7.02-1.69 7.13-2.32Q7.24-2.95 7.36-3.59L7.36-3.59L8.18-7.87L9.14-7.87L7.51 0L6.31 0L5.12-4.74Q5.02-5.20 4.93-5.63Q4.84-6.07 4.74-6.53L4.74-6.53L4.69-6.53Q4.60-6.07 4.49-5.63Q4.39-5.20 4.30-4.74L4.30-4.74L3.13 0L1.94 0ZM10.51 0L10.51-7.87L15.05-7.87L15.05-7.03L11.51-7.03L11.51-4.56L14.50-4.56L14.50-3.71L11.51-3.71L11.51-0.85L15.17-0.85L15.17 0L10.51 0ZM19.26 0L19.26-7.87L21.23-7.87Q23.05-7.87 24-6.86Q24.95-5.86 24.95-3.97L24.95-3.97Q24.95-3.04 24.71-2.30Q24.47-1.56 24-1.05Q23.53-0.54 22.85-0.27Q22.16 0 21.28 0L21.28 0L19.26 0ZM20.26-0.82L21.16-0.82Q22.54-0.82 23.23-1.64Q23.92-2.47 23.92-3.97L23.92-3.97Q23.92-5.47 23.23-6.26Q22.54-7.06 21.16-7.06L21.16-7.06L20.26-7.06L20.26-0.82ZM29.54 0.14L29.54 0.14Q28.80 0.14 28.18-0.14Q27.56-0.43 27.12-0.97Q26.68-1.50 26.43-2.26Q26.18-3.02 26.18-3.97L26.18-3.97Q26.18-4.92 26.43-5.67Q26.68-6.42 27.12-6.94Q27.56-7.46 28.18-7.74Q28.80-8.02 29.54-8.02L29.54-8.02Q30.29-8.02 30.91-7.73Q31.52-7.45 31.97-6.93Q32.42-6.41 32.67-5.66Q32.92-4.91 32.92-3.97L32.92-3.97Q32.92-3.02 32.67-2.26Q32.42-1.50 31.97-0.97Q31.52-0.43 30.91-0.14Q30.29 0.14 29.54 0.14ZM29.54-0.73L29.54-0.73Q30.07-0.73 30.50-0.96Q30.92-1.19 31.23-1.61Q31.54-2.04 31.70-2.63Q31.87-3.23 31.87-3.97L31.87-3.97Q31.87-4.70 31.70-5.29Q31.54-5.88 31.23-6.29Q30.92-6.70 30.50-6.92Q30.07-7.14 29.54-7.14L29.54-7.14Q29.02-7.14 28.59-6.92Q28.16-6.70 27.86-6.29Q27.55-5.88 27.38-5.29Q27.22-4.70 27.22-3.97L27.22-3.97Q27.22-3.23 27.38-2.63Q27.55-2.04 27.86-1.61Q28.16-1.19 28.59-0.96Q29.02-0.73 29.54-0.73ZM37.03 0L37.03-7.87L39.44-7.87Q40.09-7.87 40.63-7.75Q41.17-7.63 41.55-7.36Q41.93-7.09 42.14-6.65Q42.35-6.20 42.35-5.56L42.35-5.56Q42.35-4.93 42.14-4.48Q41.93-4.02 41.54-3.72Q41.16-3.42 40.63-3.27Q40.09-3.12 39.44-3.12L39.44-3.12L38.03-3.12L38.03 0L37.03 0ZM38.03-3.94L39.32-3.94Q40.36-3.94 40.85-4.33Q41.35-4.72 41.35-5.56L41.35-5.56Q41.35-6.41 40.85-6.74Q40.34-7.07 39.32-7.07L39.32-7.07L38.03-7.07L38.03-3.94ZM43.94 0L43.94-7.87L44.94-7.87L44.94-0.85L48.38-0.85L48.38 0L43.94 0ZM50.80-3.20L53.16-3.20L52.79-4.40Q52.57-5.06 52.38-5.72Q52.19-6.37 52.00-7.06L52.00-7.06L51.95-7.06Q51.77-6.37 51.58-5.72Q51.38-5.06 51.17-4.40L51.17-4.40L50.80-3.20ZM54.16 0L53.41-2.40L50.54-2.40L49.79 0L48.77 0L51.43-7.87L52.56-7.87L55.22 0L54.16 0ZM56.34 0L56.34-7.87L57.37-7.87L60.22-2.93L61.07-1.30L61.12-1.30Q61.08-1.90 61.04-2.54Q61.00-3.18 61.00-3.80L61.00-3.80L61.00-7.87L61.94-7.87L61.94 0L60.91 0L58.06-4.96L57.20-6.58L57.16-6.58Q57.20-5.98 57.25-5.36Q57.29-4.74 57.29-4.12L57.29-4.12L57.29 0L56.34 0ZM65.74 0L65.74-7.03L63.36-7.03L63.36-7.87L69.12-7.87L69.12-7.03L66.74-7.03L66.74 0L65.74 0ZM69.49-1.02L70.09-1.72Q70.51-1.27 71.08-1.00Q71.65-0.73 72.26-0.73L72.26-0.73Q73.04-0.73 73.48-1.09Q73.91-1.44 73.91-2.02L73.91-2.02Q73.91-2.32 73.81-2.53Q73.70-2.74 73.53-2.89Q73.36-3.04 73.12-3.16Q72.88-3.28 72.60-3.41L72.60-3.41L71.47-3.90Q71.20-4.02 70.91-4.19Q70.62-4.36 70.39-4.60Q70.16-4.84 70.02-5.17Q69.88-5.50 69.88-5.93L69.88-5.93Q69.88-6.37 70.06-6.76Q70.25-7.14 70.58-7.42Q70.91-7.70 71.36-7.86Q71.81-8.02 72.35-8.02L72.35-8.02Q73.06-8.02 73.66-7.75Q74.26-7.48 74.68-7.04L74.68-7.04L74.14-6.40Q73.78-6.74 73.34-6.94Q72.90-7.14 72.35-7.14L72.35-7.14Q71.69-7.14 71.29-6.83Q70.88-6.53 70.88-5.99L70.88-5.99Q70.88-5.70 71.00-5.50Q71.11-5.30 71.30-5.15Q71.50-5.00 71.72-4.89Q71.95-4.78 72.19-4.68L72.19-4.68L73.31-4.20Q73.64-4.06 73.94-3.87Q74.24-3.68 74.46-3.44Q74.68-3.19 74.80-2.86Q74.93-2.53 74.93-2.10L74.93-2.10Q74.93-1.63 74.74-1.22Q74.56-0.82 74.21-0.51Q73.86-0.20 73.37-0.03Q72.88 0.14 72.25 0.14L72.25 0.14Q71.42 0.14 70.72-0.17Q70.01-0.48 69.49-1.02L69.49-1.02Z" transform="translate(-0.276, 8.016)" fill="#CD8C2A" visibility="hidden"></path></g></g></g></g></g><defs v-gra="od" visibility="visible"></defs></svg>